<svg id="Layer_1" viewBox="0 0 24 24" xmlns="http://www.w3.org/2000/svg" data-name="Layer 1"><path d="m22.965 20.179c.178.809-.334 1.609-1.143 1.787-.05.011-1.714.527-4.822.826v-1.792c0-3.411-1.589-5-5-5-.552 0-1 .448-1 1s.448 1 1 1c2.299 0 3 .701 3 3v1.936c-.774.039-1.603.064-2.501.064-2.283 0-5.769-.026-7.947-.524-.326.354-.833.524-1.552.524-1.383 0-2-.617-2-2s.617-2 2-2c.201 0 .382.017.551.044.343-5.104 2.547-8.223 6.697-9.446.714 2.793 2.939 4.402 6.252 4.402.928 0 2.693-.002 4.375-.475.072.808.125 1.793.125 2.986 0 .627-.048 1.495-.144 2.59.196-.039.316-.065.322-.066.811-.177 1.609.335 1.786 1.144zm-4.072-16.69c-.091-.039-1.51-.635-3.397-1.06-2.498-.679-6.035-1.428-9.496-1.428-.417 0-.792.26-.937.651-.146.392-.033.833.283 1.105.198.171.423.348.642.524-.571.267-1.115.575-1.596.943-.295.226-.44.596-.378.962s.322.667.675.782c2.782.911 5.167 1.018 7.446 1.031 0 0 1.865.001 1.865.001.552 0 1 .448 1 1s-.448 1-1 1h-1.824c.458 1.981 1.896 3 4.324 3 2.271 0 6.5 0 6.5-3.5 0-2.349-2.076-4.215-4.107-5.011z"/></svg>