<svg width="570" height="570" viewBox="0 0 570 570" fill="none" xmlns="http://www.w3.org/2000/svg">
<g clip-path="url(#clip0_20_2)">
<path d="M332.837 3.99805C467.462 26.7505 570 143.9 570 285C570 320.324 563.572 354.147 551.824 385.363C547.013 375.699 539.408 367.292 529.361 361.48C516.429 354 501.78 352.167 488.271 355.22C495.872 333.214 500 309.589 500 285C500 180.474 425.409 93.3704 326.553 74.0127C336.131 63.8156 342 50.0941 342 35C342 23.567 338.632 12.9215 332.837 3.99805Z" fill="white" fill-opacity="0.5"/>
<path d="M285 0C304.33 0 320 15.67 320 35C320 54.33 304.33 70 285 70C284.833 70 284.666 69.9955 284.5 69.9932V70.001C165.989 70.2707 70.0002 166.426 70 285C70.0002 403.741 166.259 500 285 500C362.978 500 431.257 458.486 468.949 396.354C469.42 395.321 469.944 394.3 470.524 393.297C480.203 376.564 501.613 370.846 518.346 380.524C534.909 390.105 540.678 411.181 531.403 427.837L531.606 427.954C482.264 512.89 390.302 570 285 570C127.599 570 0.000181472 442.401 0 285C0.000181236 127.766 127.329 0.270861 284.5 0.000976562V0.00585938C284.666 0.0035292 284.833 0 285 0Z" fill="white"/>
<path d="M283.753 93.001C303.082 92.8755 318.854 108.443 318.98 127.772L319.877 266.065L404.092 314.687C420.832 324.352 426.567 345.757 416.902 362.497C407.237 379.237 385.832 384.973 369.092 375.309L266.908 316.313C253.753 308.717 247.395 293.872 249.965 279.737L248.981 128.228C248.856 108.898 264.423 93.1266 283.753 93.001Z" fill="white" fill-opacity="0.5"/>
</g>
<defs>
<clipPath id="clip0_20_2">
<rect width="570" height="570" rx="150" fill="white"/>
</clipPath>
</defs>
</svg>
